# xmcd CD database file
#
# Track frame offsets:
#	150
#	13210
#	25152
#	36166
#	46009
#	58029
#	63986
#	81501
#	107059
#	120134
#	131304
#	146112
#	161544
#	173823
#	188560
#	203308
#	218800
#	230723
#
# Disc length: 3302 seconds
#
# Revision: 2
# Processed by: cddbd v1.5.2PL0 Copyright (c) Steve Scherf et al.
# Submitted via: CDex 1.51
#
DISCID=ed0ce412
DTITLE=Various Artist - The Very Best Of Blues cd1
DYEAR=2003
DGENRE=Blues
TTITLE0=John Lee - Baby Lee
TTITLE1=Lightnin' Hopkins - Lonsome Dog
TTITLE2=B.B. King - Catfish Blues
TTITLE3=Jelly Roll Morton - King Porter Stomp
TTITLE4=Charles Brown - Trouble Blues
TTITLE5=Leadbelly - Big Fat Woman
TTITLE6=Lightnin' Hopkins - I'm Leaving You Now
TTITLE7=B.B. King - Guess Who
TTITLE8=Charles Brown - Rockin' Blues
TTITLE9=Memphis Slim - Lonesome
TTITLE10=B.B. King - BB Boogie
TTITLE11=Gatemouth Moore - Somebody's Got To Go
TTITLE12=Memphis Slim - Blues For My Baby
TTITLE13=Charles Brown - Baby Let Me Hold Your Hand
TTITLE14=Leadbelly - In New Orleans
TTITLE15=B.B. King - Walkin' And Cryin'
TTITLE16=Lightnin' Hopkins - Have You Ever Loved A Woman
TTITLE17=Jelly Roll Morton - Mr. Jelly Lord
EXTD=YEAR: 2003
EXTT0=
EXTT1=
EXTT2=
EXTT3=
EXTT4=
EXTT5=
EXTT6=
EXTT7=
EXTT8=
EXTT9=
EXTT10=
EXTT11=
EXTT12=
EXTT13=
EXTT14=
EXTT15=
EXTT16=
EXTT17=
PLAYORDER=
